name rise38.3101peak57.3503fall81.6963.mot
datacolumns 19
datarows 21
range 15.93660700000000 15.96994600000000
endheader
time	ground_force1_vx	ground_force1_vy	ground_force1_vz	ground_force1_px	ground_force1_py	ground_force1_pz	ground_force2_vx	ground_force2_vy	ground_force2_vz	ground_force2_px	ground_force2_py	ground_force2_pz	ground_torque1_x	ground_torque1_y	ground_torque1_z	ground_torque2_x	ground_torque2_y	ground_torque2_z	
15.93660700000000	10.97629700000000	711.63832600000001	44.16552400000000	0.23253500000000	0.00000000000000	0.11791900000000	0.00000000000000	0.00000000000000	0.00000000000000	0.00000000000000	0.00000000000000	0.00000000000000	0.00000000000000	18.18245600000000	0.00000000000000	0.00000000000000	0.00000000000000	0.00000000000000	
15.93827700000000	10.38116600000000	711.63076500000000	44.14989600000000	0.23113700000000	0.00000000000000	0.11794100000000	0.00000000000000	0.00000000000000	0.00000000000000	0.00000000000000	0.00000000000000	0.00000000000000	0.00000000000000	18.24130000000000	0.00000000000000	0.00000000000000	0.00000000000000	0.00000000000000	
15.93994200000000	9.77319200000000	711.61018799999999	44.13571200000000	0.22972400000000	0.00000000000000	0.11796500000000	0.00000000000000	0.00000000000000	0.00000000000000	0.00000000000000	0.00000000000000	0.00000000000000	0.00000000000000	18.30417400000000	0.00000000000000	0.00000000000000	0.00000000000000	0.00000000000000	
15.94160900000000	9.15244700000000	711.57765800000004	44.12288500000000	0.22829600000000	0.00000000000000	0.11799000000000	0.00000000000000	0.00000000000000	0.00000000000000	0.00000000000000	0.00000000000000	0.00000000000000	0.00000000000000	18.37104400000000	0.00000000000000	0.00000000000000	0.00000000000000	0.00000000000000	
15.94327400000000	8.51902200000000	711.53439800000001	44.11133400000000	0.22685600000000	0.00000000000000	0.11801700000000	0.00000000000000	0.00000000000000	0.00000000000000	0.00000000000000	0.00000000000000	0.00000000000000	0.00000000000000	18.44187100000000	0.00000000000000	0.00000000000000	0.00000000000000	0.00000000000000	
15.94494300000000	7.87303300000000	711.48179600000003	44.10098900000000	0.22540300000000	0.00000000000000	0.11804500000000	0.00000000000000	0.00000000000000	0.00000000000000	0.00000000000000	0.00000000000000	0.00000000000000	0.00000000000000	18.51662000000000	0.00000000000000	0.00000000000000	0.00000000000000	0.00000000000000	
15.94662500000000	7.21461700000000	711.42139399999996	44.09178600000000	0.22394000000000	0.00000000000000	0.11807400000000	0.00000000000000	0.00000000000000	0.00000000000000	0.00000000000000	0.00000000000000	0.00000000000000	0.00000000000000	18.59525100000000	0.00000000000000	0.00000000000000	0.00000000000000	0.00000000000000	
15.94827400000000	6.54393200000000	711.35489600000005	44.08367000000000	0.22246600000000	0.00000000000000	0.11810400000000	0.00000000000000	0.00000000000000	0.00000000000000	0.00000000000000	0.00000000000000	0.00000000000000	0.00000000000000	18.67772600000000	0.00000000000000	0.00000000000000	0.00000000000000	0.00000000000000	
15.94994100000000	5.86116000000000	711.28415600000005	44.07659600000000	0.22098500000000	0.00000000000000	0.11813500000000	0.00000000000000	0.00000000000000	0.00000000000000	0.00000000000000	0.00000000000000	0.00000000000000	0.00000000000000	18.76400300000000	0.00000000000000	0.00000000000000	0.00000000000000	0.00000000000000	
15.95160900000000	5.16650100000000	711.21118000000001	44.07052500000000	0.21949600000000	0.00000000000000	0.11816600000000	0.00000000000000	0.00000000000000	0.00000000000000	0.00000000000000	0.00000000000000	0.00000000000000	0.00000000000000	18.85404100000000	0.00000000000000	0.00000000000000	0.00000000000000	0.00000000000000	
15.95328100000000	4.46017800000000	711.13811799999996	44.06543100000000	0.21800100000000	0.00000000000000	0.11819900000000	0.00000000000000	0.00000000000000	0.00000000000000	0.00000000000000	0.00000000000000	0.00000000000000	0.00000000000000	18.94779700000000	0.00000000000000	0.00000000000000	0.00000000000000	0.00000000000000	
15.95494300000000	3.74243400000000	711.06726100000003	44.06129700000000	0.21650200000000	0.00000000000000	0.11823200000000	0.00000000000000	0.00000000000000	0.00000000000000	0.00000000000000	0.00000000000000	0.00000000000000	0.00000000000000	19.04522300000000	0.00000000000000	0.00000000000000	0.00000000000000	0.00000000000000	
15.95661200000000	3.01353100000000	711.00103200000001	44.05811500000000	0.21499900000000	0.00000000000000	0.11826500000000	0.00000000000000	0.00000000000000	0.00000000000000	0.00000000000000	0.00000000000000	0.00000000000000	0.00000000000000	19.14627400000000	0.00000000000000	0.00000000000000	0.00000000000000	0.00000000000000	
15.95827900000000	2.27375200000000	710.94198500000005	44.05588900000000	0.21349400000000	0.00000000000000	0.11829900000000	0.00000000000000	0.00000000000000	0.00000000000000	0.00000000000000	0.00000000000000	0.00000000000000	0.00000000000000	19.25089900000000	0.00000000000000	0.00000000000000	0.00000000000000	0.00000000000000	
15.95994200000000	1.52339600000000	710.89278899999999	44.05463200000000	0.21198800000000	0.00000000000000	0.11833300000000	0.00000000000000	0.00000000000000	0.00000000000000	0.00000000000000	0.00000000000000	0.00000000000000	0.00000000000000	19.35904600000000	0.00000000000000	0.00000000000000	0.00000000000000	0.00000000000000	
15.96161400000000	0.76278400000000	710.85622599999999	44.05437100000000	0.21048300000000	0.00000000000000	0.11836700000000	0.00000000000000	0.00000000000000	0.00000000000000	0.00000000000000	0.00000000000000	0.00000000000000	0.00000000000000	19.47066000000000	0.00000000000000	0.00000000000000	0.00000000000000	0.00000000000000	
15.96327700000000	-0.00774900000000	710.83518300000003	44.05514200000000	0.20898000000000	0.00000000000000	0.11840100000000	0.00000000000000	0.00000000000000	0.00000000000000	0.00000000000000	0.00000000000000	0.00000000000000	0.00000000000000	19.58568300000000	0.00000000000000	0.00000000000000	0.00000000000000	0.00000000000000	
15.96494700000000	-0.78784900000000	710.83263699999998	44.05699500000000	0.20748000000000	0.00000000000000	0.11843400000000	0.00000000000000	0.00000000000000	0.00000000000000	0.00000000000000	0.00000000000000	0.00000000000000	0.00000000000000	19.70405400000000	0.00000000000000	0.00000000000000	0.00000000000000	0.00000000000000	
15.96660800000000	-1.57714900000000	710.85164799999995	44.05998900000000	0.20598400000000	0.00000000000000	0.11846700000000	0.00000000000000	0.00000000000000	0.00000000000000	0.00000000000000	0.00000000000000	0.00000000000000	0.00000000000000	19.82570900000000	0.00000000000000	0.00000000000000	0.00000000000000	0.00000000000000	
15.96828200000000	-2.37526300000000	710.89535000000001	44.06419900000000	0.20449400000000	0.00000000000000	0.11850000000000	0.00000000000000	0.00000000000000	0.00000000000000	0.00000000000000	0.00000000000000	0.00000000000000	0.00000000000000	19.95058100000000	0.00000000000000	0.00000000000000	0.00000000000000	0.00000000000000	
15.96994600000000	-3.18179400000000	710.96693500000003	44.06971100000000	0.20301000000000	0.00000000000000	0.11853100000000	0.00000000000000	0.00000000000000	0.00000000000000	0.00000000000000	0.00000000000000	0.00000000000000	0.00000000000000	20.07859800000000	0.00000000000000	0.00000000000000	0.00000000000000	0.00000000000000	
